Coordinates
version=1
nRows=12
nColumns=24
inDegrees=yes

Units are S.I. units (second, meters, Newtons, ...)
Angles are in degrees.

endheader
time	pelvis_tilt	pelvis_list	pelvis_rotation	pelvis_tx	pelvis_ty	pelvis_tz	hip_flexion_r	hip_adduction_r	hip_rotation_r	knee_angle_r	ankle_angle_r	subtalar_angle_r	mtp_angle_r	hip_flexion_l	hip_adduction_l	hip_rotation_l	knee_angle_l	ankle_angle_l	subtalar_angle_l	mtp_angle_l	lumbar_extension	lumbar_bending	lumbar_rotation
      1.06700000	     -1.67910283	     -0.57455610	     -3.98299757	     -0.15180608	      0.96931256	      0.33446781	    -12.99149905	      3.10657307	     -4.70723551	     -9.18620914	     15.36938036	      4.79963547	      5.54215627	     25.39999049	      0.12685701	     -5.81239874	     -1.19279739	      1.08217033	     -2.75052923	     -0.65698213	     -0.38359910	      4.33495275	      7.59393462
      1.07116667	     -1.73980853	     -0.50109531	     -4.02466580	     -0.14600800	      0.96866443	      0.33420412	    -13.06329989	      2.95787113	     -4.71073644	     -9.60877203	     15.33519244	      4.80287464	      5.58400957	     25.38674515	      0.24989400	     -5.89881091	     -1.14440659	      0.94320943	     -2.88403475	     -0.62722218	     -0.29272505	      4.24933023	      7.63643710
      1.07533333	     -1.82878692	     -0.41026564	     -4.06111714	     -0.14019478	      0.96802756	      0.33391421	    -13.07451342	      2.79043816	     -4.72554880	    -10.09039225	     15.36542641	      4.88348911	      5.67528165	     25.39441123	      0.39349923	     -5.88876115	     -1.14369953	      0.70077054	     -3.15539630	     -0.55998562	     -0.16860599	      4.13695524	      7.73932341
      1.07950000	     -1.89104985	     -0.31618006	     -4.08016305	     -0.13434200	      0.96746658	      0.33358934	    -13.09546675	      2.61477903	     -4.81231582	    -10.60562883	     15.28682287	      5.01062675	      5.95042980	     25.38333112	      0.55014996	     -5.82120149	     -1.23379189	      0.48097202	     -3.59650497	     -0.33440947	     -0.06368471	      4.03737192	      7.81020706
      1.08366667	     -1.99586923	     -0.21872065	     -4.10542415	     -0.12848654	      0.96692241	      0.33329731	    -13.06409244	      2.45118240	     -4.77330901	    -11.13329127	     15.25529491	      4.90855783	      6.09255803	     25.45838903	      0.69158447	     -5.86143501	     -1.46186592	      0.19750937	     -3.84802472	     -0.21908337	      0.08845397	      3.93334408	      7.83953852
      1.08783333	     -2.06630828	     -0.08713091	     -4.11343110	     -0.12255285	      0.96647136	      0.33299090	    -13.06602087	      2.25334494	     -4.75166085	    -11.66414959	     15.11552829	      4.78025107	      6.16568785	     25.49314375	      0.87361351	     -5.88462906	     -1.74291169	     -0.05891393	     -4.08243411	     -0.15705430	      0.21635305	      3.76163023	      7.85270238
      1.09200000	     -2.19037701	      0.01616964	     -4.10715483	     -0.11666795	      0.96599345	      0.33263520	    -12.97425563	      2.09204453	     -4.72213079	    -12.26231929	     15.02219316	      4.65736245	      6.32894954	     25.60744411	      1.03398494	     -5.79377099	     -2.10832310	     -0.42171053	     -4.58458029	     -0.02074884	      0.40161413	      3.65263315	      7.89269864
      1.09616667	     -2.29503160	      0.14959797	     -4.09396414	     -0.11071420	      0.96559813	      0.33227948	    -12.89220442	      1.90010614	     -4.69556772	    -12.87879498	     14.85849855	      4.48434528	      6.52310391	     25.69698966	      1.22473854	     -5.71584432	     -2.51174850	     -0.79046201	     -5.04110864	      0.13982468	      0.56535463	      3.50016422	      7.90330929
      1.10033333	     -2.35440709	      0.30663116	     -4.07246344	     -0.10469323	      0.96531693	      0.33192800	    -12.84564405	      1.68352247	     -4.67912152	    -13.51856357	     14.61357109	      4.27611772	      6.61451265	     25.74680814	      1.43757476	     -5.69791859	     -2.97708934	     -1.08864089	     -5.32048629	      0.21459980	      0.68719991	      3.28950568	      7.89444173
      1.10450000	     -2.50315486	      0.41453184	     -4.03456114	     -0.09875368	      0.96496484	      0.33152553	    -12.66687092	      1.53374574	     -4.60877122	    -14.22156424	     14.41677828	      4.02283440	      6.84127169	     25.91132040	      1.60894221	     -5.53184560	     -3.49775555	     -1.53680355	     -5.92917128	      0.38433861	      0.90728570	      3.17305451	      7.89410311
      1.10866667	     -2.56666447	      0.56961985	     -3.97978505	     -0.09269946	      0.96477583	      0.33110026	    -12.57651373	      1.32496525	     -4.60190356	    -14.91633201	     13.99448561	      3.70805568	     10.53090543	     25.96673328	      1.83702867	     -5.40616359	     -4.01065042	     -1.97688129	     -6.43733513	      3.00718673	      1.03022496	      2.98453982	      7.85699842
      1.11283333	     -2.69135646	      0.71368406	     -3.93464668	     -0.08668300	      0.96456170	      0.33068792	    -12.36875718	      1.13663830	     -4.53603019	    -15.71830749	     13.72317999	      3.39250229	     10.57157530	     26.11363187	      2.04029915	     -5.30939939	     -4.59966855	     -2.38409203	     -6.86487099	      3.00575457	      1.22698115	      2.80814289	      7.84508687
